<?xml version="1.0" standalone="no"?>
<!DOCTYPE svg PUBLIC "-//W3C//DTD SVG 20010904//EN"
 "http://www.w3.org/TR/2001/REC-SVG-20010904/DTD/svg10.dtd">
<svg version="1.0" xmlns="http://www.w3.org/2000/svg"
 width="500.000000pt" height="500.000000pt" viewBox="0 0 500.000000 500.000000"
 preserveAspectRatio="xMidYMid meet">

<g transform="translate(0.000000,500.000000) scale(0.100000,-0.100000)"
fill="#000000" stroke="none">
<path d="M2159 4690 c-969 -154 -1718 -916 -1854 -1887 -24 -170 -17 -538 13
-698 87 -454 289 -841 607 -1161 347 -349 780 -567 1268 -638 157 -23 476 -21
632 3 672 106 1231 482 1581 1062 153 254 254 553 295 873 18 139 6 504 -20
641 -44 233 -104 414 -203 610 -216 430 -564 777 -994 989 -215 106 -418 170
-652 206 -172 27 -504 26 -673 0z m359 -152 c-3 -7 -13 -13 -23 -13 -10 0 -20
6 -22 13 -3 7 5 12 22 12 17 0 25 -5 23 -12z m52 -3 c0 -8 -9 -15 -20 -15 -11
0 -20 7 -20 15 0 8 9 15 20 15 11 0 20 -7 20 -15z m-400 -30 c0 -8 -9 -15 -20
-15 -11 0 -20 7 -20 15 0 8 9 15 20 15 11 0 20 -7 20 -15z m313 -83 c-6 -85 5
-122 35 -122 34 0 42 21 42 112 l0 88 26 0 26 0 -4 -99 c-4 -122 -16 -141 -88
-141 -76 0 -99 48 -85 175 6 59 9 65 30 65 23 0 23 -1 18 -78z m358 42 c15 -7
30 -25 33 -39 7 -28 -17 -95 -35 -95 -11 0 -7 -49 8 -87 4 -11 -1 -14 -23 -11
-26 3 -30 8 -38 51 -10 58 -32 62 -41 7 -6 -34 -10 -40 -32 -40 -23 0 -25 3
-19 33 3 17 10 66 16 107 6 41 13 81 15 88 5 15 75 7 116 -14z m-636 -105 c16
-95 16 -112 4 -120 -26 -16 -34 -3 -51 92 -23 129 -23 139 5 139 22 0 24 -7
42 -111z m878 57 c58 -17 63 -21 48 -44 -7 -11 -16 -11 -50 -1 -45 13 -46 13
-55 -17 -6 -19 -1 -23 31 -31 30 -7 37 -13 35 -29 -5 -25 -4 -25 -42 -14 -37
11 -46 6 -52 -24 -2 -16 6 -22 37 -31 38 -11 57 -36 37 -49 -15 -9 -141 34
-137 47 2 7 16 53 30 102 15 50 28 96 31 104 2 7 10 11 17 8 6 -2 38 -12 70
-21z m-1107 -84 c12 -46 25 -86 28 -89 3 -3 23 -1 46 5 32 8 40 7 40 -4 0 -8
1 -17 3 -21 3 -10 -116 -44 -124 -35 -4 4 -20 54 -37 112 -20 74 -26 107 -18
112 26 18 40 0 62 -80z m1350 -9 c56 -25 59 -29 45 -52 -7 -10 -13 -11 -31 -1
-12 6 -23 10 -25 8 -1 -2 -19 -42 -40 -89 -31 -72 -40 -86 -56 -82 -11 3 -21
8 -23 12 -2 3 13 44 34 91 34 75 36 86 23 97 -9 7 -20 14 -25 15 -5 2 -6 11
-2 21 7 20 18 18 100 -20z m-1516 0 c16 -20 20 -37 17 -63 -4 -29 1 -41 27
-68 30 -32 30 -34 11 -48 -17 -13 -22 -11 -55 20 -46 44 -65 38 -43 -15 17
-44 17 -46 -11 -51 -16 -2 -27 15 -63 96 -23 55 -43 103 -43 108 0 13 81 48
112 48 17 0 34 -10 48 -27z m1719 -47 c7 -9 8 -17 2 -20 -15 -10 -40 5 -34 20
7 18 17 18 32 0z m-1975 -41 c4 -10 -8 -23 -35 -40 -34 -22 -38 -28 -29 -45
13 -25 17 -25 56 -1 30 18 31 18 42 0 10 -15 6 -21 -23 -39 -31 -19 -34 -24
-24 -43 7 -12 13 -23 14 -25 2 -2 21 7 44 20 30 17 43 20 52 11 6 -6 8 -16 5
-22 -8 -12 -116 -75 -120 -70 -10 11 -116 191 -116 197 0 9 101 71 116 72 7 0
14 -7 18 -15z m1929 -74 c-79 -143 -89 -155 -112 -127 -9 10 1 36 46 113 54
95 59 100 80 90 l23 -10 -37 -66z m179 -29 c16 -13 15 -18 -8 -80 -13 -36 -23
-66 -21 -68 1 -2 27 16 56 38 51 39 56 40 79 27 14 -8 27 -19 29 -25 5 -16
-125 -184 -143 -184 -27 0 -26 29 3 67 50 64 48 68 -10 24 -47 -36 -59 -41
-76 -31 -26 13 -26 8 4 82 14 34 25 64 25 67 0 2 -18 -19 -40 -48 -21 -30 -41
-55 -43 -57 -2 -2 -11 4 -21 15 -16 17 -13 23 54 110 71 92 76 94 112 63z
m-2263 -209 c20 -25 20 -27 4 -45 -17 -19 -18 -18 -48 16 -16 19 -63 52 -103
74 -73 39 -74 40 -51 56 21 15 26 14 66 -10 47 -27 50 -23 31 39 -11 35 -10
41 8 54 18 13 20 10 46 -71 15 -48 36 -98 47 -113z m1868 -560 c307 -264 383
-334 383 -354 0 -11 -34 -56 -75 -100 -97 -103 -105 -116 -121 -195 -8 -37
-28 -93 -46 -126 l-31 -58 41 -36 c55 -46 68 -92 47 -163 -20 -65 -63 -114
-126 -142 -36 -17 -51 -30 -55 -48 -22 -98 -49 -144 -117 -196 -30 -23 -47
-44 -47 -57 0 -83 -76 -182 -147 -194 -39 -6 -44 -11 -68 -61 -46 -93 -147
-148 -229 -123 -22 6 -106 61 -188 121 -82 60 -152 109 -155 109 -3 0 -25 -18
-49 -40 -23 -21 -54 -42 -69 -46 -56 -14 -125 42 -125 102 0 27 17 53 101 151
55 65 112 128 125 141 55 49 156 12 170 -63 7 -39 -4 -63 -58 -125 l-40 -45
38 -32 c68 -59 266 -193 286 -193 30 0 96 38 114 65 29 44 16 62 -141 189 -89
72 -151 130 -153 141 -4 33 12 48 45 41 27 -6 69 -38 276 -207 62 -50 105 -53
148 -10 24 25 29 38 29 80 0 56 17 38 -189 203 -118 94 -131 110 -115 136 24
38 50 26 204 -97 83 -67 159 -121 168 -121 36 0 102 93 102 143 0 32 -9 42
-130 142 -124 103 -150 130 -150 155 0 29 34 44 64 28 14 -7 77 -58 141 -113
64 -55 125 -103 135 -107 26 -10 104 42 119 80 7 18 10 43 7 57 -4 17 -106
112 -304 285 -263 230 -301 260 -331 260 -64 0 -236 -31 -310 -56 -98 -34
-166 -23 -228 36 -36 33 -30 69 20 116 67 64 130 112 170 129 30 12 169 33
237 35 11 0 10 3 -3 11 -55 32 -558 -9 -617 -50 -14 -10 -48 -60 -75 -112 -28
-52 -90 -164 -138 -251 l-88 -156 12 -64 c14 -76 22 -87 48 -64 72 65 191 18
191 -76 0 -32 -17 -55 -143 -190 -88 -94 -117 -119 -145 -124 -49 -9 -99 17
-118 62 -20 47 -6 88 50 158 64 78 65 82 51 143 -14 62 -17 65 -65 83 -19 8
-82 42 -140 75 -77 45 -106 67 -108 83 -8 56 278 572 371 670 49 51 70 45 187
-53 56 -47 107 -85 113 -85 7 0 64 9 127 21 145 26 405 36 492 19 35 -6 91
-25 125 -42 41 -20 70 -28 85 -24 14 3 64 58 123 131 75 94 105 125 122 125
15 0 75 -45 170 -127z m-1168 -1009 c34 -29 49 -81 32 -113 -13 -23 -144 -174
-228 -264 -62 -65 -88 -75 -132 -53 -67 35 -77 111 -23 188 42 60 207 239 234
255 38 20 83 16 117 -13z m194 -174 c49 -55 42 -72 -108 -248 -81 -96 -148
-166 -167 -175 -43 -20 -79 -12 -115 25 -44 46 -40 100 12 164 82 100 210 237
240 256 44 28 102 19 138 -22z m-833 -1000 c11 -7 12 -12 3 -21 -13 -13 -33
-4 -33 17 0 16 9 18 30 4z m2148 -63 c-32 -28 -35 -34 -24 -49 17 -23 25 -23
53 4 21 20 25 20 39 6 14 -14 12 -18 -17 -42 l-32 -27 21 -21 21 -21 31 27
c36 30 43 31 59 12 9 -10 -1 -23 -48 -59 l-58 -46 -72 90 c-40 50 -71 94 -69
99 2 4 26 26 53 48 44 36 52 39 65 26 13 -14 11 -19 -22 -47z m-2201 42 c9 -9
-2 -29 -43 -79 -58 -73 -67 -104 -32 -116 23 -7 43 11 113 99 28 35 32 37 50
24 19 -14 18 -17 -23 -70 -90 -116 -114 -128 -174 -86 -60 43 -56 77 23 175
51 65 66 73 86 53z m97 -39 c-14 -14 -39 14 -29 31 5 8 12 6 23 -5 11 -11 13
-19 6 -26z m1960 -87 c5 -11 0 -23 -14 -33 -20 -15 -20 -16 31 -99 41 -66 49
-85 38 -92 -27 -17 -38 -8 -84 71 -46 79 -48 80 -70 66 -21 -14 -25 -14 -36 0
-14 17 -13 19 59 66 66 43 68 43 76 21z m-1813 -46 c36 -24 49 -67 29 -97 -15
-23 -44 0 -45 36 0 23 -5 30 -24 32 -41 6 -43 -19 -5 -60 46 -51 43 -102 -7
-128 -41 -23 -129 32 -129 79 0 29 16 44 39 36 16 -5 20 -12 15 -30 -4 -17 0
-26 16 -35 51 -28 67 15 20 56 -38 35 -44 56 -26 93 25 47 64 54 117 18z
m1586 -24 c4 -11 -26 -27 -35 -19 -2 3 -2 12 2 21 6 18 27 16 33 -2z m99 -250
c-20 -12 -24 -6 -73 95 -51 107 -51 107 -30 119 21 12 24 7 73 -95 51 -106 51
-107 30 -119z m-1496 180 c36 -15 67 -28 68 -29 2 -1 1 -12 -3 -23 -5 -17 -10
-19 -25 -11 -10 6 -23 10 -27 10 -5 0 -26 -40 -47 -90 -34 -81 -40 -89 -57
-79 -25 13 -25 14 16 108 l34 81 -22 11 c-29 16 -28 14 -21 33 8 21 8 21 84
-11z m215 -23 c10 -16 -3 -29 -24 -23 -12 3 -17 11 -14 19 6 16 29 19 38 4z
m55 -26 c0 -9 -7 -14 -17 -12 -25 5 -28 28 -4 28 12 0 21 -6 21 -16z m990 -83
l32 -89 41 14 c33 12 42 12 49 2 4 -7 6 -17 5 -22 -5 -15 -118 -50 -127 -40
-4 5 -24 54 -44 108 -28 77 -33 102 -24 108 27 17 37 5 68 -81z m-1097 73 c13
-5 12 -17 -8 -91 -25 -91 -24 -108 6 -116 29 -8 45 15 63 90 21 85 26 94 53
87 l21 -6 -25 -91 c-14 -51 -32 -100 -41 -111 -24 -26 -96 -17 -130 17 -27 28
-27 31 14 175 15 52 20 57 47 46z m951 -133 c30 -60 52 -111 49 -115 -13 -13
-41 -5 -55 16 -21 31 -65 19 -70 -20 -2 -19 -9 -28 -26 -30 l-23 -3 3 122 c3
122 3 123 28 130 14 4 28 7 32 8 4 1 32 -48 62 -108z m-669 2 c16 -43 30 -71
31 -63 2 8 6 41 9 73 6 55 15 66 42 49 9 -6 8 -32 -2 -112 -8 -58 -15 -110
-15 -117 0 -7 -9 -9 -27 -4 -23 6 -32 20 -53 75 -27 71 -40 76 -40 17 0 -55
-10 -81 -31 -81 -23 0 -24 14 -7 146 11 92 12 94 37 94 24 0 30 -8 56 -77z
m415 17 l-30 -51 24 -37 c12 -20 31 -52 40 -69 l17 -33 -28 0 c-23 0 -33 8
-53 44 -13 25 -28 43 -32 40 -4 -3 -8 -25 -8 -50 0 -40 -2 -44 -24 -44 -23 0
-24 4 -30 83 -4 45 -9 99 -12 120 -5 34 -4 37 19 37 22 0 26 -6 32 -42 l7 -42
24 47 c21 40 29 47 54 47 l29 0 -29 -50z"/>
<path d="M2766 4424 c-3 -9 -6 -25 -6 -35 0 -32 54 -22 58 10 5 36 -39 58 -52
25z"/>
<path d="M1716 4291 c-7 -10 13 -61 24 -61 17 0 42 29 39 46 -4 21 -53 33 -63
15z"/>
<path d="M3032 3305 l-62 -74 207 -172 c115 -94 215 -178 224 -185 14 -12 24
-5 81 59 l66 73 -116 105 c-148 134 -313 269 -326 269 -6 0 -39 -34 -74 -75z"/>
<path d="M1701 3216 c-83 -126 -258 -453 -248 -463 3 -3 43 -27 88 -53 l83
-48 16 26 c9 15 49 88 90 162 40 74 102 186 137 248 40 71 61 118 56 126 -9
15 -128 126 -136 126 -2 0 -41 -56 -86 -124z"/>
<path d="M2880 697 c0 -30 4 -37 20 -37 18 0 18 3 8 28 -19 45 -28 48 -28 9z"/>
</g>
</svg>
